<?xml version="1.0" encoding="utf-8"?>
<!-- Generator: Adobe Illustrator 19.2.1, SVG Export Plug-In . SVG Version: 6.00 Build 0)  -->
<svg version="1.1" id="layer" xmlns="http://www.w3.org/2000/svg" xmlns:xlink="http://www.w3.org/1999/xlink" x="0px" y="0px"
	 viewBox="0 0 652 652" style="enable-background:new 0 0 652 652;" xml:space="preserve">
<style type="text/css">
	.st0{fill:#FFFFFF;}
	.st1{fill:#0072D3;}
	.st2{fill:#F23D4E;}
</style>
<g id="Logos-_x2F_-Brand-_x2F_-Primary-H-Light">
	<g id="PADI-horizontal-trap-on-light">
		<path id="Shape" class="st0" d="M124.7,217.9c-57.5,0-104.1,46.6-104.1,104.1s46.6,104.1,104.1,104.1S228.8,379.5,228.8,322
			c0-27.6-11-54.1-30.5-73.6S152.3,217.9,124.7,217.9"/>
		<path id="Shape_1_" class="st1" d="M62.3,349.7c-1.1-4.5-2-9-2.6-13.6c0.6,0.1,1.1,0.3,1.7,0.3H63c1.2,2.4,4.5,3.5,12.5,5.2
			c3.1,0.7,6.2,1.7,9.2,2.9c2.6,1.1,5.2,1.9,8,2.5c0,0.9,0.3,1.8,0.4,2.7c0.3,0.9,0.1,1.9-0.5,2.6s-1.5,1.1-2.5,1H66.6
			c-2.2,0.1-4.1-1.5-4.4-3.6L62.3,349.7z M137.6,257.7h-26c-2.6,0.2-5,1.8-5.9,4.3l-5.9,20.2c-0.4,1-0.2,2.2,0.4,3.1
			s1.7,1.4,2.8,1.4h43.4c1.1,0,2.2-0.5,2.8-1.4c0.6-0.9,0.8-2.1,0.4-3.1l-6.1-20.2C142.6,259.5,140.3,257.9,137.6,257.7z
			 M100.1,257.7h-17c-2.5,0.2-4.8,1.6-6.1,3.7c-0.6,0.9-1.1,1.8-1.7,2.8c0.5,0.5,0.8,1,1.1,1.6l0.7,1.5h1.3c2.5,0,5.2-5.2,5.2-5.2
			s5.6,6.9,3.4,11.9c-1.2,3-3.9,5-7.1,5.2H79c-0.6,0.5-1.3,0.9-2,1.3c0,2.1-0.7,4.1-1.9,5.9h15.6c2.3-0.1,4.2-1.7,4.7-4
			c1.7-7.2,3.9-14.3,6.6-21.3c0,0,1.9-3.7-2-3.7V257.7z M193.7,257.3h-14c-5.7,0-3,3.6-3,3.6c4.8,6.5,8.5,13.8,10.9,21.4
			c0.6,2.4,2.8,4,5.2,4h19.6c5.2,0,3.3-4.8,3.3-4.8c-2.9-7.6-7.2-14.7-12.6-20.8c-2.7-2.2-6.2-3.4-9.8-3.2L193.7,257.3z
			 M182.9,290.5h-23.6c-0.9-0.1-1.9,0.3-2.5,1c-0.6,0.7-0.8,1.7-0.5,2.6c1.1,6.6,1.8,13.2,2,19.9c2.2-1,4.5-1.6,6.9-1.6
			c1.7,0.3,3.5-0.1,4.9-1c0.6-1,1.4-1.8,2.4-2.3v-0.7c1-2.8,3.4-4.8,6.3-5.2c0.5-0.1,1-0.1,1.5,0c2.5,0.1,4.8,1.1,6.6,2.8
			c0.8,0.7,1.6,1.4,2.5,2c-0.5-4.6-1.3-9.1-2.4-13.6c-0.3-2.2-2.2-3.7-4.4-3.6L182.9,290.5z M187.1,349.7c1.1-4.6,2-9.2,2.5-13.8
			c-0.9-3.9-2.9-7.5-5.8-10.4l-1-0.9c-3.2-0.7-6.5-0.4-9.5,0.6c-5.7,2.6-11,6.1-15.6,10.4c0,1.6,0,3.1-0.4,4.7
			c4.1,0.5,8,2.1,11.2,4.7c4.8,3.9,10.5,6.4,16.6,7.5c1-0.7,1.6-1.7,1.8-2.9L187.1,349.7z M149.1,386h17.3c2.5-0.2,4.8-1.6,6.1-3.7
			c4.2-6.1,7.6-12.5,10.4-19.4c-6.4-0.8-12.6-2.3-18.6-4.5h-0.7c-2.9,0.7-5.9,1.2-8.9,1.3c-0.2,0.4-0.3,0.8-0.4,1.1
			c-1.7,7.2-4,14.3-6.7,21.3c0,0-1.9,3.7,2,3.7L149.1,386z M77.1,382.1c1.3,2.2,3.6,3.6,6.1,3.7h17c3.9,0,2-3.7,2-3.7
			c-2.7-6.9-4.9-14-6.6-21.3c-0.5-2.2-2.5-3.8-4.7-4H68.3c-4.2,0-2.4,4-2.4,4c2.8,7.5,6.5,14.6,11,21.2H77.1z M194.1,290.8
			c-3.4,0-2.5,3.6-2.5,3.6c1.4,5.7,2.3,11.4,2.8,17.2l5.2,4c1.6,1.3,3.1,2.7,4.5,4.2h16.1c1.2,0.1,2.4-0.4,3.2-1.3s1.2-2.1,1-3.3
			c-0.4-6.8-1.5-13.5-3.4-20c-0.8-2.7-3.3-4.5-6.1-4.4H194.1z M90.1,290.8H70.8l-0.9,0.6c-2.4,1.2-5,1.9-7.6,2
			c-0.2,0.3-0.3,0.6-0.3,0.9c-0.9,4-1.6,8-2.1,12.1v0.6c0.4,1.7,1.2,3.3,2.4,4.6l1.2,1.4c0.6-0.9,1.4-1.7,2.2-2.4
			c-0.6-0.8-1-1.6-1.2-2.6c-0.3-1.5,0.1-3.1,0.9-4.4l3.1-4.4c1.2-1.7,3.1-2.7,5.2-2.7c1.1,0,2.2,0.3,3.2,0.8l0.8-0.8
			c1.9-1.5,4.3-2.3,6.7-2.1c2.5,0,4.9,0.5,7.2,1.4l1.1,0.6l0.3-2c0.3-0.9,0.1-1.9-0.5-2.6s-1.5-1.1-2.5-1L90.1,290.8z M152.4,295.3
			c-0.3-2.6-2.6-4.6-5.2-4.6h-45.1c-2.6,0-4.9,2-5.2,4.6l-0.4,4.5c1.3,1.5,2.2,3.3,2.8,5.2c1.4-0.6,3-0.8,4.5-0.6
			c1.6,0,3.2,0.3,4.6,0.9c2.1,0.7,30.5,13,34.4,14.6h7.3c0.7,0,1.4-0.2,2-0.5l0.3-0.4c0.5-0.6,1-1.1,1.5-1.7
			c0.3-0.7,0.4-1.4,0.4-2.1L152.4,295.3z M181.3,286.7c4.2,0,2.4-4,2.4-4c-2.8-7.5-6.5-14.6-11-21.2c-1.3-2.2-3.7-3.7-6.3-3.7h-17
			c-3.9,0-2,3.7-2,3.7c2.7,6.9,4.9,14,6.7,21.3c0.5,2.2,2.4,3.8,4.7,4H181.3z M133.4,347.4c0.4,1,0.8,2.1,1.1,3.2c1.8-1.3,4-2,6.3-2
			c0.3,0,3.6,0,4.5,0.3c4.5,0.4,5.2-2.3,5.2-2.3c0.6-1.5,1.4-2.9,2.5-4.2l0.3-3.3c-5.9,4.1-12.7,6.9-19.8,8.2H133.4z M102.3,353.3
			h6.8c-0.7-1-1.4-1.8-1.7-2.4l-1.9-2.9c-2.9,0-5.8-0.3-8.4-0.5v1c0.3,2.6,2.6,4.6,5.2,4.6V353.3z M111.9,386.1h26
			c2.6-0.2,5-1.8,5.9-4.3l5.9-19.5c-4.6,3.1-9.7,5.3-15.1,6.5c-1.7,0.4-3.5,0.5-5.2,0.5c-4.8,0.1-9.5-2-12.5-5.7l-4.7-6.3H103
			c-1.1-0.1-2.2,0.5-2.8,1.4s-0.8,2.1-0.4,3.1l6.1,20.2c1,2.5,3.3,4.2,5.9,4.3L111.9,386.1z M106.6,393.7c-0.8-2.2-2.8-3.8-5.2-4
			H86.7c-5.2,0-0.8,4.2-0.8,4.2c8.2,9.9,18.4,18.1,29.9,24c4.3,1.9,4.8,1.8,3.1-0.9c-2.5-3.8-9.4-17.2-12.1-23.2H106.6z
			 M135.9,389.6h-22.4c-2.4,0-3.5,1.9-2.4,4.3c2.8,7,6,13.8,9.7,20.4c1.8,3,2.2,3.4,3.9,3.4c1.7,0,2.1-0.4,3.9-3.4
			c3.7-6.6,6.9-13.4,9.7-20.4C139.4,391.6,138.3,389.6,135.9,389.6z M114.6,419.6c-13-6-24.4-14.9-33.3-26c-2.2-2.5-5.3-3.9-8.6-4
			H57.4c0,0-5.7,0-2.3,4c14.3,13.9,32.4,23.1,52,26.6c5.2,0.9,13.2,1.9,7.6-0.6H114.6z M163.7,393.6c0,0,4.3-4.2-0.8-4.2H148
			c-2.4,0.2-4.4,1.8-5.2,4c-2.7,6-9.6,19.4-12.1,23.2c-1.8,2.8-1.2,2.8,3.1,0.9C145.3,411.7,155.5,403.5,163.7,393.6z M220.2,324.2
			H208c3.6,4.3,6.7,9,9.3,14l0.7,1.5c0.3,0.6,0.3,1.3,0,1.9c-0.3,0.6-0.8,1.1-1.5,1.3l-1.6,0.5c-1.6,0.7-3.1,1.7-4.3,2.9
			c-1.7,1.7-4,2.6-6.4,2.6c-1.8,0-3.6-0.5-5.2-1.2c-1.3-0.2-2.7-0.3-4-0.3h-2.6c0,0.8-0.4,1.6-0.5,2.4c-0.2,0.8-0.9,3.6,2.5,3.6
			h20.8c2.8,0.1,5.4-1.7,6.1-4.4c1.9-6.5,3-13.2,3.4-20c0.2-1.2-0.2-2.4-1-3.3s-2-1.4-3.2-1.3L220.2,324.2z M56,386.3h13.7
			c5.7,0,3-3.6,3-3.6c-4.8-6.5-8.5-13.8-10.9-21.4c-0.6-2.4-2.8-4-5.2-4H36.8c-5.2,0-3.3,4.8-3.3,4.8c2.9,7.6,7.2,14.7,12.6,20.8
			c2.7,2.2,6.2,3.4,9.8,3.2V386.3z M192,389.6h-15.2c-3.3,0.1-6.4,1.5-8.5,4c-8.9,11.1-20.3,20-33.3,26c-5.6,2.5,2.4,1.5,7.6,0.6
			c19.6-3.5,37.7-12.8,52-26.6C197.6,389.6,192,389.6,192,389.6z M212.8,357.2h-3.5c0.5,0.8,0.8,1.7,0.8,2.7c0,4.6-5.2,4.6-9.3,4.6
			c-4.7-0.1-9.4-0.4-14-0.9c-2.4,6.8-5.7,13.3-10,19.1c0,0-2.7,3.6,3,3.6h13.7c3.5,0.2,7-0.9,9.8-3.2c5.4-6.1,9.7-13.2,12.6-20.8
			c0,0,1.9-4.8-3.3-4.8L212.8,357.2z M142.6,250.3c0.8,2.2,2.8,3.8,5.2,4h14.7c5.2,0,0.8-4.2,0.8-4.2c-8.2-9.9-18.4-18.1-29.9-24
			c-4.3-1.9-4.8-1.8-3.1,0.9c2.5,3.8,9.4,17.2,12.1,23.2H142.6z M55.3,353.2c3.4,0,2.5-3.6,2.5-3.6c-1.3-5.3-2.2-10.6-2.7-16
			c-2.9-2.4-4.7-5.8-5.2-9.5H29.2c-1.2,0-2.4,0.4-3.2,1.3c-0.8,0.9-1.2,2.1-1,3.3c0.4,6.8,1.5,13.5,3.4,20c0.8,2.7,3.3,4.6,6.1,4.4
			H55.3z M113.5,254.4h22.4c2.4,0,3.5-1.9,2.4-4.3c-2.8-7-6-13.8-9.7-20.4c-1.8-3-2.2-3.4-3.9-3.4c-1.7,0-2.1,0.4-3.9,3.4
			c-3.6,6.6-6.9,13.4-9.7,20.4C110,252.4,111.1,254.4,113.5,254.4z M135.1,224.3c13,6,24.4,14.9,33.3,26c2.1,2.4,5.1,3.9,8.3,4.1
			H192c0,0,5.8,0,2.3-4c-14.3-13.9-32.4-23.2-52-26.6c-5.2-0.9-13.2-1.9-7.6,0.6L135.1,224.3z M85.7,250.4c0,0-4.3,4.2,0.8,4.2h14.7
			c2.4-0.2,4.4-1.8,5.2-4c2.7-6,9.6-19.4,12.1-23.2c1.8-2.8,1.2-2.8-3.1-0.9c-11.5,5.9-21.7,14-29.9,24H85.7z M29.2,319.8h19.9
			c-0.3-2.6-1.1-5.2-2.5-7.4c-2.8-5.2-2.8-8.1-4.3-10.4l-0.9-2c-1.2-2.7-1.2-5.7,0-8.4v-0.8h-6.9c-2.8-0.1-5.4,1.7-6.1,4.4
			c-1.9,6.5-3,13.2-3.4,20c-0.2,1.2,0.2,2.4,1,3.3s2,1.4,3.2,1.3V319.8z M57.4,254.4h15.2c3.3-0.1,6.4-1.5,8.5-4
			c8.9-11.1,20.3-20,33.3-26c5.6-2.5-2.4-1.5-7.6-0.6c-19.6,3.5-37.7,12.8-52,26.6C51.9,254.4,57.4,254.4,57.4,254.4z M36.6,286.8
			h7.1v-0.6c0.2-1.8,0.7-3.5,1.5-5.2l-0.4-1.3c-1.1-3.9-0.1-8.1,2.7-11c2.1-2.4,5.1-3.8,8.3-3.6c2.4,0,5.2,1.6,7.9,1.4
			c0.4,0,0.8-0.1,1.2-0.3c1.6-2.1,3.9-3.4,6.5-3.6h0.3l1.1-1.2c0,0,2.7-3.6-3-3.6H56c-3.5-0.2-7,0.9-9.8,3.2
			c-5.4,6.1-9.7,13.2-12.6,20.8c0,0-1.9,4.8,3.3,4.8L36.6,286.8z"/>
		<path id="Shape_2_" class="st2" d="M44.6,298.1c-0.8-1.6-0.8-3.6,0-5.2c1.2-2.9,2.5-3,3.1-6.3c0.2-4.6,3.7-8.5,8.3-9.2
			c6.3-1.1,11,8.2,16.7,2.2c0.4,3.5-1.6,6.8-4.8,8.2c-3.6,2.1-8.1,2.3-11.9,0.5c-1.7-0.7-4.8-3.4-5.9,0c-1,3.4,5.2,2.2,4.1,7.9
			c-3.2-2-7.4-1.3-9.8,1.7 M64.9,275.9c1.7-1.2,3-2.9,3.7-4.9c1.6-3.5,4-3.6,4-3.6c-1-2-3.1-0.7-5.2,1.4c-2.1,2.1-5.9,1.2-7.5,1.2
			c-3.2-1.4-6.9-0.7-9.4,1.6c-1.8,1.9-2.5,4.7-1.9,7.2c4.6-4,11-4.9,16.5-2.5 M76.5,276.7c2.3-1.9,5.2,0.3,6.8-4
			c0.7-1.4,0.7-3.1,0-4.5c-2.4,3.7-4.1,3.4-7.8,3c-3.7-0.5-4,1.1-5.8,3.5c-0.8,1.2-1.8,2.3-3.1,3C68.7,279.7,74.1,278.6,76.5,276.7
			 M49.3,298.2c-2,1.2-2.9,3.7-2.2,6s2.9,3.8,5.3,3.6c2.5-0.9,3.7-3.7,2.9-6.2C54.5,299,51.9,297.5,49.3,298.2 M53.4,323.2
			c0.5,4.5,3.8,8.3,8.3,9.2c3.5,0.3,5.5-1.4,5.2-5.8c-0.3-4.5-5.2-9.3-7.9-12.6c-1.6-1.8-2.7-4-3.2-6.5c-1.5,2.2-4.3,3.1-6.7,2
			c2.7,4,4.1,8.7,4,13.6 M70.5,312.7c-1.8,0-3.5,1.1-4.2,2.8c-0.7,1.7-0.3,3.6,1,4.9c1.3,1.3,3.2,1.7,4.9,1c1.7-0.7,2.8-2.4,2.8-4.2
			C75,314.8,73,312.7,70.5,312.7 M82,314.4l2.7-4.6c0.7-1.2,0.3-2.8-0.8-3.5l-8.9-5.6c-1.1-0.6-2.5-0.4-3.3,0.5l-3,4.4
			c-0.3,0.4-0.4,0.9-0.3,1.4c0.1,0.5,0.4,0.9,0.8,1.2l10.4,6.7c0.4,0.3,1,0.4,1.5,0.3s1-0.5,1.2-0.9 M76.3,321.4
			c-0.7,0.6-1.5,1-2.4,1.1c6.7,2.2,3,0,9.2-0.4c5.8,0.6,11.2-3.2,12.5-8.9c2.1-5.3-0.1-11.4-5.2-14.1c-3.1-1.5-6.7-1.5-9.7,0
			c-0.5,0.3-0.7,0.8-0.7,1.4c0.1,0.6,0.5,1,1,1.2c0,0,3.5,2.2,5.7,3.9c1.3,0.9,1.8,2.5,1.2,3.9c0,0-2.5,4.6-4.1,6.7
			c-1.5,2.1-5.2,1.6-5.2,1.6L76.3,321.4 M76.3,337.6c9.4,2,12.2,5.2,20.8,6s21.4,0.9,21.4,0.9c-0.4-3.5-0.7-6.9-0.7-10.4
			c-9.4-1.6-13-2.1-16-5.8c-3-3.7,0.6-9.1,0.6-9.1c-1.5-1.5-3.4-2.3-5.5-2.3c-2.7,4.6-7.6,7.4-13,7.5c-1.4-0.4-2.9-0.1-4,0.9
			c-1.3,0.9-2.8,0.7-6.3-0.7s-3.8,0.9-3.8,0.9c-0.5,7.8-2.4,7.1-3.4,8.1c-0.9,0.9,0.6,2,9.7,3.9 M129.4,323
			c3.6,2.8,8.2,3.7,12.6,2.7c0.4-0.4,0.5-1,0.3-1.6c-0.2-0.5-0.6-0.9-1.2-1.1c0,0-32.3-13.8-34.3-14.6c-2.3-1.1-5.1-0.8-7.1,0.8
			c-1.3,1.4-1.9,3.3-1.6,5.2c5.5,1,6.8,3.7,6.8,3.7c8.5-0.6,17,1.1,24.6,4.9 M120.2,332.4c0,1.5,0.8,14.7,0.8,14.7
			c1.6,1.1,3.7,1.4,5.6,0.8c2-6.7,3-13.8,2.8-20.8c-0.9-2.7-2.3-3.3-9.6-4.9c-4.5-1.2-9.1-1.7-13.7-1.5c-2,0.8-3.1,3.1-2.5,5.2
			c0.6,2.8,4.6,4.2,4.6,4.2c4,1.1,8,2,12.1,2.6 M124.7,357.2c1.1-0.1,2.1-0.7,2.6-1.7c0.5-1,0.5-2.2,0-3.2c-1.1-1.9-3.4-2.8-5.6-2.2
			c-1.7,0.5-2.1,2.7-2.1,2.7c-1,3.7,2.6,4.7,5.2,4.4 M132.4,327.7c-0.1,5.5-1,11-2.4,16.3c8.7-1,16.9-4.4,23.7-9.9
			c11.9-9.4,13.9-10.8,18.4-12.4c3-1.1,6.2-1.5,9.3-1.1c2.1,0,3.9,1.1,4.8-0.4c0.9-1.6-4.6-6.1-7.9-7.1c-3.3-1-4.2-0.5-4.8,0.8
			c-2.1,2-4.9,3-7.8,2.7c-4-0.1-7.9,1.7-10.4,4.8c-6.1,6.2-15,8.6-23.4,6.4 M189.2,319.5c0.7,2.1-2.6,3.2-2.6,3.2
			c7.8,6.8,8.6,20.8,8.6,20.8c1.7,0,3.5,0.1,5.2,0.5c2.3,1.7,5.5,1.5,7.6-0.5c1.6-1.6,3.6-2.9,5.8-3.7c-4.2-7.9-9.7-15-16.2-21.1
			c-4.1-3-9.8-7.6-11.6-9c-1.8-1.4-3.2-3.1-5.8-2.6c-1.5,0.2-2.7,1.2-3.3,2.6c5.1,1.8,9.5,5.3,12.5,9.8 M119.5,360.7
			c3.3,4.5,9.1,6.3,14.4,4.5c9.9-2,16.6-9.1,20.1-8.9c2.9,0,5.7-0.4,8.5-1.1c-2.3-5.2-10.4-5.7-10.4-5.7c-1.8,2.8-5.2,3-11,2.7
			c-2.9-0.5-5.9,0.9-7.4,3.4c0,0-1.8,0-2.4-3.1c-0.3-1.6-1.2-3.1-2.5-4.1c-0.5,0.3-0.9,0.9-1,1.5c-0.1,0.6,0.1,1.2,0.5,1.7
			c1,1.5,1.1,3.3,0.4,4.9c-0.9,1.4-2.4,2.4-4,2.7s-3.3,0-4.7-1c-4.6-2.8-1.4-9.5-1.4-9.5h-7.9C110.6,348.6,118.4,359.5,119.5,360.7
			 M165,354.8c13.7,5.8,41,6.9,41,5.2c0-1.7-1.7-1.2-1.7-1.2c-24.7-0.9-33.7-7.3-37.9-10.7c-2.8-2.2-6.1-3.7-9.6-4.5
			c-2.4,0.3-3.4,3.3-3.4,3.3C158.4,347.3,162.7,350.3,165,354.8"/>
		<path id="Shape_3_" d="M404.6,257.7l44,128.6H326l24.8-76.8h32.1l-14.9,46.3h37.7l-33-98H404.6z M514.2,257.7H457v30.5h40
			c12,0.1,23,6.6,29,17.1c5.9,10.4,5.8,23.3-0.3,33.6c-6.1,10.3-17.2,16.7-29.2,16.6h-8.9v-46H457v76.8h57.2
			c29.4-2.7,50.6-32.8,50.6-64.1S541.4,260.3,514.2,257.7z M343.2,298.2c-0.6-22.2-18.5-40-40.7-40.5h-47.8v30.5h43.5
			c5.5,0.1,9.9,4.5,9.9,10c0,5.9-4.5,10.8-10.4,11.2h-43v76.8h30.5v-46.8h17.2c22.3-0.7,40.1-18.8,40.6-41.1L343.2,298.2z
			 M602.9,257.8h-30.5v128.5h30.5V257.8z"/>
	</g>
	<path id="_xAE_" d="M608.9,264.4c0-3.3,2.7-5.8,5.9-5.8c3.2,0,5.9,2.5,5.9,5.8c0,3.4-2.7,5.9-5.9,5.9
		C611.6,270.2,608.9,267.7,608.9,264.4z M610,264.4c0,2.9,2.1,5,4.8,5c2.7,0,4.8-2.2,4.8-5c0-2.8-2.1-4.9-4.8-4.9
		C612.1,259.4,610,261.6,610,264.4z M612.5,267.8V261h2.6c1.6,0,2.4,0.6,2.4,2c0,1.2-0.8,1.7-1.8,1.9l2,3h-1.1l-1.9-2.9h-1.1v2.9
		H612.5z M613.6,261.8v2.2h1.1c0.9,0,1.8,0,1.8-1.1c0-0.9-0.8-1-1.5-1H613.6z"/>
</g>
</svg>
